Coordinates
version=1
nRows=26
nColumns=24
inDegrees=yes

Units are S.I. units (second, meters, Newtons, ...)
Angles are in degrees.

endheader
time	pelvis_tilt	pelvis_list	pelvis_rotation	pelvis_tx	pelvis_ty	pelvis_tz	hip_flexion_r	hip_adduction_r	hip_rotation_r	knee_angle_r	ankle_angle_r	subtalar_angle_r	mtp_angle_r	hip_flexion_l	hip_adduction_l	hip_rotation_l	knee_angle_l	ankle_angle_l	subtalar_angle_l	mtp_angle_l	lumbar_extension	lumbar_bending	lumbar_rotation
      0.94583333	      4.36629303	     -1.85874907	     -1.85434219	     -0.38480205	      1.08997933	      0.32158142	      2.38312114	      6.87656617	     -4.72311537	     -9.91617118	     -3.14316090	     -9.21493845	      2.88741298	      9.41187131	     -1.79723906	      0.76947391	    -57.69330623	     -3.52812085	    -11.57744021	      8.39765476	     -0.42177614	      7.58265086	      2.89836112
      0.95000000	      4.38351958	     -1.84284457	     -1.96125263	     -0.38010562	      1.09048033	      0.32174761	      1.97560795	      6.87173216	     -4.57558806	     -9.70523954	     -3.03807186	     -9.32631486	      2.89743705	      9.83304436	     -1.69330387	      1.00406373	    -57.17241978	     -3.07742746	    -12.12516852	      8.30061086	     -0.50533909	      7.59190616	      3.00646185
      0.95416667	      4.38261296	     -1.86153328	     -1.99773130	     -0.37540228	      1.09091206	      0.32202215	      1.55791561	      6.92609179	     -4.36717549	     -9.42637352	     -2.96663457	     -9.35621120	      2.90321404	     10.27995168	     -1.64479642	      1.29829960	    -56.63002093	     -2.77906447	    -12.48490464	      8.23798493	     -0.51844045	      7.55935293	      3.08710436
      0.95833333	      4.38396007	     -1.83676110	     -2.11787253	     -0.37072782	      1.09134452	      0.32221042	      1.16605579	      6.91065394	     -4.20743989	     -9.21318415	     -2.86111678	     -9.49522141	      2.90972634	     10.69132245	     -1.53761469	      1.51132712	    -56.02066408	     -2.37164138	    -13.07403668	      8.11869823	     -0.58427451	      7.55472609	      3.20454554
      0.96250000	      4.37065472	     -1.84932809	     -2.15661254	     -0.36604136	      1.09170645	      0.32246499	      0.76038437	      6.95448683	     -3.99252773	     -8.93242805	     -2.79462520	     -9.52702185	      2.91335492	     11.12411462	     -1.48265447	      1.80159757	    -55.38963443	     -2.11930445	    -13.41967116	      8.04738840	     -0.57883729	      7.52127019	      3.28511873
      0.96666667	      4.35314962	     -1.84182379	     -2.28665058	     -0.36146163	      1.09203859	      0.32274562	      0.38727343	      6.96559230	     -3.74899286	     -8.70224266	     -2.72631641	     -9.72957297	      2.91971428	     11.53966489	     -1.41254471	      1.98428725	    -54.70092575	     -1.93123159	    -14.18381036	      7.74023595	     -0.70690875	      7.52762253	      3.51467283
      0.97083333	      4.31126364	     -1.82166106	     -2.35695759	     -0.35677934	      1.09233288	      0.32285145	      0.03197862	      6.95022827	     -3.62024586	     -8.46471375	     -2.67559478	     -9.73460421	      2.92068591	     11.96482998	     -1.31013584	      2.26459511	    -53.96058826	     -1.73778884	    -14.33176481	      7.70514777	     -0.70182700	      7.53096086	      3.54187791
      0.97500000	      4.30414620	     -1.84389512	     -2.39481004	     -0.35206982	      1.09262240	      0.32317371	     -0.38960342	      7.00847077	     -3.42695906	     -8.16493879	     -2.55896101	     -9.78984378	      2.92142005	     12.34635699	     -1.28206685	      2.51088111	    -53.21508120	     -1.33782066	    -14.76803756	      7.62549736	     -0.60119573	      7.47600534	      3.61745572
      0.97916667	      4.24889551	     -1.84351779	     -2.47926578	     -0.34742208	      1.09282129	      0.32339782	     -0.73555094	      7.02518155	     -3.23802170	     -7.91356957	     -2.45590380	     -9.87778616	      2.92032471	     12.76326316	     -1.22350972	      2.73274803	    -52.41629265	     -1.04183047	    -15.21717494	      7.52397422	     -0.58209882	      7.45906903	      3.68950589
      0.98333333	      4.17286929	     -1.83061732	     -2.63297818	     -0.34282075	      1.09297406	      0.32363081	     -1.03657993	      7.01677158	     -3.05434374	     -7.70993114	     -2.36098233	    -10.04368734	      2.91481118	     13.17896824	     -1.16045560	      2.88024837	    -51.56153303	     -0.86624664	    -15.81765767	      7.30932437	     -0.59952390	      7.45584948	      3.81479999
      0.98750000	      4.12392765	     -1.85758240	     -2.64976993	     -0.33820570	      1.09309927	      0.32385339	     -1.40264189	      7.07032020	     -2.87723715	     -7.41746543	     -2.30775929	    -10.05182586	      2.91316328	     13.57849312	     -1.13700186	      3.15433061	    -50.69937687	     -0.73099266	    -16.04110335	      7.22272617	     -0.54765999	      7.45781720	      3.87294953
      0.99166667	      4.04425929	     -1.85708219	     -2.73221190	     -0.33363695	      1.09316113	      0.32394099	     -1.70147056	      7.06768302	     -2.76941531	     -7.20377857	     -2.25269650	    -10.07577813	      2.91183504	     13.98503766	     -1.07586691	      3.39409232	    -49.78285361	     -0.59105554	    -16.21052205	      7.17662012	     -0.58656297	      7.48311820	      3.89375834
      0.99583333	      4.00826183	     -1.88343456	     -2.77412882	     -0.32895912	      1.09326122	      0.32425102	     -2.09135327	      7.12238620	     -2.57008256	     -6.90072321	     -2.13051893	    -10.14240563	      2.90812729	     14.32948759	     -1.07169919	      3.59369013	    -48.84152717	     -0.35604331	    -16.65035482	      7.06785559	     -0.44477729	      7.45156762	      3.97613754
      1.00000000	      3.92368446	     -1.89761089	     -2.85827173	     -0.32434212	      1.09325187	      0.32446427	     -2.40398103	      7.14629606	     -2.38700729	     -6.65058566	     -2.02402130	    -10.23079129	      2.90177952	     14.71112331	     -1.05138753	      3.77646667	    -47.85827057	     -0.23845658	    -17.07991786	      6.92272743	     -0.38865976	      7.45141778	      4.05872057
      1.00416667	      3.78980935	     -1.92632693	     -2.98833850	     -0.31983400	      1.09313328	      0.32470399	     -2.64513459	      7.18216428	     -2.15186920	     -6.43137410	     -1.96700216	    -10.38799143	      2.87515936	     15.13905000	     -1.06209044	      3.90695214	    -46.83998243	     -0.41023287	    -17.75040261	      6.40120204	     -0.41014597	      7.48422749	      4.27495262
      1.00833333	      3.73672606	     -1.95255787	     -3.02539449	     -0.31519674	      1.09310598	      0.32482737	     -2.99465554	      7.21368846	     -2.07756459	     -6.17099251	     -1.89963579	    -10.38766800	      2.87064826	     15.46163121	     -1.04983892	      4.12361277	    -45.79384093	     -0.26220009	    -17.84027612	      6.30303696	     -0.32454846	      7.53136317	      4.30358671
      1.01250000	      3.64251588	     -1.99242167	     -3.07798877	     -0.31068043	      1.09295704	      0.32488864	     -3.27899324	      7.25296336	     -1.99146690	     -5.94990520	     -1.83846583	    -10.38942574	      2.86809038	     15.82875036	     -1.05382317	      4.34490342	    -44.73481896	     -0.15385260	    -17.93223186	      6.24478881	     -0.33891854	      7.57525697	      4.31284926
      1.01666667	      3.55508086	     -2.02057762	     -3.17770383	     -0.30600954	      1.09282767	      0.32515958	     -3.59649504	      7.28803878	     -1.81117734	     -5.69471888	     -1.65428825	    -10.48167286	      2.85001074	     16.14916203	     -1.07828692	      4.44516493	    -43.61883042	     -0.07881055	    -18.36331455	      5.91725839	     -0.21982449	      7.54793593	      4.40128870
      1.02083333	      3.44474426	     -2.08323246	     -3.19973611	     -0.30146919	      1.09257583	      0.32524946	     -3.87128938	      7.36033067	     -1.75837207	     -5.44506640	     -1.62928025	    -10.46097988	      2.84844392	     16.51708605	     -1.11800471	      4.63435297	    -42.52056132	     -0.02320818	    -18.38446961	      5.88126760	     -0.27005981	      7.63468618	      4.39584856
      1.02500000	      3.35842651	     -2.12249871	     -3.27877073	     -0.29679990	      1.09237565	      0.32541908	     -4.19325323	      7.39768186	     -1.57483632	     -5.19310963	     -1.47983961	    -10.53710515	      2.82202427	     16.80912985	     -1.15005324	      4.77773491	    -41.33878268	     -0.09280884	    -18.71549076	      5.43995529	     -0.05673737	      7.64221218	      4.50278236
      1.02916667	      3.26868725	     -2.21597442	     -3.27886229	     -0.29231540	      1.09206467	      0.32542610	     -4.49395595	      7.49540206	     -1.48719017	     -4.94434650	     -1.46178258	    -10.49769856	      2.81839063	     17.13557621	     -1.21886205	      5.00732669	    -40.19598675	     -0.03149552	    -18.72367572	      5.36770391	     -0.05192484	      7.76580068	      4.50105714
      1.03333333	      3.19491259	     -2.29300786	     -3.29009672	     -0.28773220	      1.09176922	      0.32548430	     -4.82232407	      7.57665044	     -1.41487809	     -4.68186508	     -1.40188584	    -10.48413116	      2.81376622	     17.41707690	     -1.27996078	      5.18126915	    -39.01012104	      0.01585552	    -18.74303096	      5.28063126	      0.01116068	      7.86298601	      4.50836894
      1.03750000	      3.08405372	     -2.37583694	     -3.31422088	     -0.28313770	      1.09138320	      0.32553501	     -5.10062908	      7.66210261	     -1.38370298	     -4.43843897	     -1.34984876	    -10.47645381	      2.81156270	     17.72831567	     -1.35370556	      5.31908072	    -37.81383991	      0.06470579	    -18.74681444	      5.23501520	     -0.01376879	      7.95207739	      4.50087944
      1.04166667	      2.99078711	     -2.46312069	     -3.33068424	     -0.27856093	      1.09097769	      0.32554707	     -5.40146766	      7.74729472	     -1.32705241	     -4.19046064	     -1.28786852	    -10.46369196	      2.80972635	     18.00897571	     -1.43066498	      5.47321605	    -36.58762037	      0.10081616	    -18.73771763	      5.19012604	      0.01517497	      8.05517132	      4.49676541
      1.04583333	      2.94525440	     -2.56727954	     -3.33019795	     -0.27392860	      1.09060889	      0.32566115	     -5.77634377	      7.86081151	     -1.21989629	     -3.90820539	     -1.17523493	    -10.44639066	      2.80531075	     18.22201839	     -1.53607134	      5.59641345	    -35.33940663	      0.07697164	    -18.69602887	      5.08844339	      0.19008601	      8.15895181	      4.51363683
      1.05000000	      2.86611190	     -2.66712652	     -3.35658356	     -0.26932599	      1.09015828	      0.32569680	     -6.09779286	      7.95734011	     -1.13733297	     -3.66413908	     -1.06917310	    -10.43745366	      2.79914118	     18.45821303	     -1.63663522	      5.70873688	    -34.07054958	      0.05358133	    -18.61336274	      4.96181962	      0.24961194	      8.25699206	      4.52003157
